# xmcd CD database file
# Copyright (C) 1993-1998 Ti Kan
#
# Track frame offsets:
#	150
#	23125
#	40652
#	57765
#	78650
#	98552
#	115932
#	136437
#	154187
#	168100
#	185372
#	200805
#	219847
#	233750
#	256675
#	273525
#	292677
#	309670
#	326052
#
# Disc length: 4573 seconds
#
# Revision: 1
# Processed by: cddbd v1.4b41PL1 Copyright (c) Steve Scherf et al.
# Submitted via: CDValet v3.31 - Copyright (c) 1997 Greg Leichner
#
DISCID=0011db13
DTITLE=Various Artist - Universal Inside Tracks (Vol. 7)
DYEAR=1900
DGENRE=
TTITLE0=Straight To The Point
TTITLE1=Whisper A Prayer
TTITLE2=Crank
TTITLE3=In The Face Of The Sun
TTITLE4=Change
TTITLE5=Property
TTITLE6=Down Deep Into Pain
TTITLE7=Never
TTITLE8=Something Inside
TTITLE9=When You Gonna Learn?
TTITLE10=My Sister
TTITLE11=Human Behavior
TTITLE12=Oh Carolina
TTITLE13=Feel It Fe Real
TTITLE14=Booty Mack
TTITLE15=Look Good
TTITLE16=Foulin'
TTITLE17=Kick The Bobo
TTITLE18=Rabbit Stew
EXTD=
EXTT0=
EXTT1=
EXTT2=
EXTT3=
EXTT4=
EXTT5=
EXTT6=
EXTT7=
EXTT8=
EXTT9=
EXTT10=
EXTT11=
EXTT12=
EXTT13=
EXTT14=
EXTT15=
EXTT16=
EXTT17=
EXTT18=
PLAYORDER=
